<svg viewBox="0 0 20 20" xmlns="http://www.w3.org/2000/svg"><path fill-rule="evenodd" clip-rule="evenodd" d="M9.406 3.488a5.208 5.208 0 00-5.626 8.49.625.625 0 01-.893.875 6.459 6.459 0 1110.652-6.811h1.044a4.375 4.375 0 012.43 8.013.625.625 0 01-.694-1.04 3.125 3.125 0 00-1.736-5.723h-1.491a.625.625 0 01-.6-.446 5.208 5.208 0 00-3.086-3.358z" fill="inherit"/><path fill-rule="evenodd" clip-rule="evenodd" d="M10 9.375c.345 0 .625.28.625.625v7.5a.625.625 0 11-1.25 0V10c0-.345.28-.625.625-.625z" fill="inherit"/><path fill-rule="evenodd" clip-rule="evenodd" d="M6.225 13.725a.625.625 0 01.884 0L10 16.616l2.891-2.891a.625.625 0 11.884.884l-3.333 3.333a.625.625 0 01-.884 0L6.225 14.61a.625.625 0 010-.884z" fill="inherit"/></svg>