<svg viewBox="0 0 23 23" xmlns="http://www.w3.org/2000/svg"><path d="M16.23 22.478c.95-.05 1.773-.191 2.471-.424a5.817 5.817 0 002.172-1.373 5.818 5.818 0 001.372-2.171c.233-.699.375-1.523.425-2.47.05-.95.074-2.505.074-4.668 0-2.163-.016-3.71-.05-4.642-.066-.965-.216-1.797-.449-2.495a5.818 5.818 0 00-1.372-2.172A5.818 5.818 0 0018.7.691c-.698-.233-1.522-.375-2.47-.424-.949-.05-2.504-.075-4.667-.075S7.845.217 6.897.267c-.948.05-1.772.19-2.47.424-.833.3-1.556.757-2.172 1.372A5.818 5.818 0 00.882 4.235C.65 4.933.508 5.757.458 6.705c-.046.873-.07 2.26-.074 4.16v1.015c.003 1.9.028 3.287.074 4.16.05.947.192 1.771.424 2.47.3.832.757 1.555 1.373 2.171a5.32 5.32 0 002.171 1.323c.7.266 1.523.424 2.471.474.872.046 2.259.07 4.16.074h1.014c1.9-.003 3.287-.028 4.16-.074zm-3.63-1.922h-1.835c-1.33 0-2.362-.016-3.094-.05-1.232-.066-2.13-.2-2.696-.399-.998-.4-1.713-1.115-2.146-2.146-.2-.566-.333-1.464-.4-2.696a69.072 69.072 0 01-.049-2.848v-1.843c0-1.331.016-2.363.05-3.095.066-1.264.2-2.163.4-2.695.398-1.032 1.114-1.747 2.145-2.147.566-.2 1.464-.332 2.696-.399a69.074 69.074 0 012.848-.05h1.844c1.33 0 2.362.017 3.094.05 1.265.067 2.163.2 2.695.4 1.032.399 1.747 1.114 2.147 2.146.2.532.332 1.43.399 2.695.031.658.048 1.61.05 2.857v1.835c0 1.33-.017 2.362-.05 3.094-.067 1.232-.2 2.13-.4 2.696-.399.998-1.114 1.713-2.146 2.146-.532.2-1.43.333-2.695.4-.658.03-1.61.047-2.857.05zM17.553 6.73c.366 0 .674-.133.924-.399s.39-.582.424-.948c0-.366-.133-.683-.4-.949a1.296 1.296 0 00-.948-.399c-.366 0-.682.133-.948.4-.266.265-.4.582-.4.948s.134.682.4.948c.266.266.582.4.948.4zm-5.99 10.382a5.586 5.586 0 002.87-.773 5.757 5.757 0 002.097-2.097 5.585 5.585 0 00.774-2.87 5.585 5.585 0 00-.774-2.87 5.756 5.756 0 00-2.096-2.096 5.586 5.586 0 00-2.87-.774 5.585 5.585 0 00-2.87.774 5.757 5.757 0 00-2.097 2.096 5.586 5.586 0 00-.773 2.87c0 1.032.258 1.988.774 2.87a5.757 5.757 0 002.096 2.097 5.586 5.586 0 002.87.773zm0-1.996c-1.03 0-1.912-.366-2.645-1.098a3.606 3.606 0 01-1.098-2.646c0-1.031.366-1.913 1.098-2.645.733-.732 1.614-1.098 2.646-1.098 1.031 0 1.913.366 2.645 1.098.732.732 1.098 1.614 1.098 2.645a3.606 3.606 0 01-1.098 2.646c-.732.732-1.614 1.098-2.645 1.098z" fill="inherit"/></svg>