<svg viewBox="0 0 40 40" xmlns="http://www.w3.org/2000/svg"><path d="M10.392 10.755a13.333 13.333 0 0014.695 21.573c.191-1.25-.229-2.45-.4-2.87-.384-.933-1.647-2.528-3.755-4.74-.564-.591-.527-1.046-.325-2.395l.021-.151c.137-.924.367-1.47 3.475-1.964 1.58-.25 1.995.38 2.57 1.255l.194.287c.546.8.951.983 1.563 1.26.275.125.617.283 1.075.542 1.087.621 1.087 1.323 1.087 2.86v.175c0 .651-.064 1.225-.164 1.723a13.335 13.335 0 00-5.175-20.568c-.921.621-2.186 1.503-2.628 2.108-.225.308-.545 1.887-1.583 2.017-.27.033-.635.01-1.022-.015-1.037-.067-2.453-.159-2.907 1.073-.288.78-.338 2.9.594 4 .15.175.178.5.076.865-.133.478-.401.77-.486.83-.16-.093-.48-.465-.699-.717-.521-.608-1.175-1.366-2.018-1.6-.307-.085-.643-.155-.972-.225-.915-.191-1.95-.41-2.191-.923-.177-.377-.175-.895-.175-1.442 0-.695 0-1.48-.34-2.241a2.125 2.125 0 00-.51-.717zM20 36.667c-9.205 0-16.667-7.462-16.667-16.667 0-9.205 7.462-16.667 16.667-16.667 9.205 0 16.667 7.462 16.667 16.667 0 9.205-7.462 16.667-16.667 16.667z" fill="inherit"/></svg>