<svg viewBox="0 0 26 26"><path d="M13 12.73c.523 0 .97-.186 1.34-.556.37-.37.556-.817.556-1.34 0-.524-.186-.97-.556-1.341A1.827 1.827 0 0013 8.938c-.524 0-.97.185-1.341.555-.37.37-.555.817-.555 1.34 0 .524.185.971.555 1.341.37.37.817.556 1.34.556zm0 11.104c-2.907-2.474-5.078-4.771-6.514-6.893-1.435-2.122-2.153-4.085-2.153-5.89 0-2.709.871-4.867 2.614-6.474 1.742-1.607 3.76-2.41 6.053-2.41s4.31.803 6.053 2.41c1.742 1.607 2.613 3.765 2.613 6.473 0 1.806-.717 3.77-2.153 5.89-1.435 2.122-3.606 4.42-6.513 6.894z" fill="inherit"/></svg>