<svg width="40" height="40" fill="none" xmlns="http://www.w3.org/2000/svg"><path d="M20.197 39.845c10.848 0 19.643-8.874 19.643-19.821C39.84 9.077 31.045.202 20.197.202 9.348.202.554 9.077.554 20.024s8.794 19.821 19.643 19.821z" fill="url(#paint0_linear_651_584)"/><path d="M8.729 19.852l13.227-5.5c1.306-.572 5.734-2.406 5.734-2.406s2.044-.802 1.874 1.146c-.057.802-.511 3.61-.965 6.646l-1.42 8.994s-.113 1.317-1.078 1.546c-.965.23-2.555-.802-2.839-1.03-.227-.173-4.258-2.75-5.734-4.01-.397-.345-.851-1.032.057-1.834 2.044-1.89 4.485-4.24 5.961-5.729.681-.687 1.363-2.291-1.476-.344l-8.005 5.443s-.908.573-2.611.057a117.515 117.515 0 01-3.69-1.203s-1.363-.86.965-1.776z" fill="#fff"/><defs><linearGradient id="paint0_linear_651_584" x1="26.746" y1="6.811" x2="16.773" y2="29.869" gradientUnits="userSpaceOnUse"><stop stop-color="#37AEE2"/><stop offset="1" stop-color="#1E96C8"/></linearGradient></defs></svg>