<svg viewBox="0 0 24 19" xmlns="http://www.w3.org/2000/svg"><path d="M23.81 2.313a7.941 7.941 0 01-2.83.743A4.474 4.474 0 0023.125.413a9.862 9.862 0 01-3.086 1.156C18.66.161 16.532-.298 14.663.412c-1.868.71-3.1 2.443-3.11 4.38 0 .412.085.743.085 1.073C7.679 5.708 3.988 3.899 1.524.908a4.907 4.907 0 00-.686 2.479c-.016 1.603.826 3.102 2.228 3.965a5.24 5.24 0 01-2.228-.578v.082c-.003 2.253 1.65 4.192 3.943 4.626a6.872 6.872 0 01-1.286.166 3.64 3.64 0 01-.943-.083c.663 1.934 2.516 3.257 4.629 3.304a10.329 10.329 0 01-6.086 2.066 5.86 5.86 0 01-1.2-.083A14.549 14.549 0 007.438 19c9.086 0 13.971-7.27 13.971-13.465v-.579a14.155 14.155 0 002.4-2.643z" fill="#fff"/><path d="M23.81 2.313a7.941 7.941 0 01-2.83.743A4.474 4.474 0 0023.125.413a9.862 9.862 0 01-3.086 1.156C18.66.161 16.532-.298 14.663.412c-1.868.71-3.1 2.443-3.11 4.38 0 .412.085.743.085 1.073C7.679 5.708 3.988 3.899 1.524.908a4.907 4.907 0 00-.686 2.479c-.016 1.603.826 3.102 2.228 3.965a5.24 5.24 0 01-2.228-.578v.082c-.003 2.253 1.65 4.192 3.943 4.626a6.872 6.872 0 01-1.286.166 3.64 3.64 0 01-.943-.083c.663 1.934 2.516 3.257 4.629 3.304a10.329 10.329 0 01-6.086 2.066 5.86 5.86 0 01-1.2-.083A14.549 14.549 0 007.438 19c9.086 0 13.971-7.27 13.971-13.465v-.579a14.155 14.155 0 002.4-2.643z" fill="inherit"/></svg>