<svg width="44" height="46" fill="none" xmlns="http://www.w3.org/2000/svg"><path d="M38.825 4.672C37.705 3.638 33.175.35 23.089.306c0 0-11.895-.717-17.694 4.601C2.167 8.136 1.032 12.86.912 18.717.792 24.574.637 35.55 11.218 38.526h.01l-.007 4.54s-.068 1.84 1.143 2.214c1.464.455 2.324-.942 3.722-2.449.767-.827 1.827-2.041 2.625-2.97 7.236.61 12.801-.783 13.433-.988 1.461-.474 9.729-1.533 11.073-12.508 1.388-11.313-.671-18.468-4.392-21.693z" fill="#fff"/><path d="M36.471 6.957c-.947-.86-5.036-3.43-13.569-3.467 0 0-10.104-.664-15.008 3.778-2.73 2.696-3.65 6.704-3.75 11.595-.101 4.891-.624 14.235 8.323 16.72 0 0-.035 6.937-.04 7.547 0 .426.068.718.312.778.175.043.438-.048.661-.27 1.43-1.437 6.01-6.962 6.01-6.962 6.145.4 11.035-.813 11.56-.984 1.24-.399 7.946-.975 9.08-10.141 1.173-9.45-.43-15.899-3.579-18.594z" fill="#7360F2"/><path d="M23.945 26.101s.802.068 1.234-.464l.842-1.059c.406-.525 1.386-.86 2.345-.325.72.41 1.417.856 2.092 1.335.637.469 1.94 1.557 1.945 1.557.62.524.764 1.294.341 2.106l-.003.017a8.78 8.78 0 01-1.752 2.158c-.008.004-.008.008-.015.012-.604.504-1.197.79-1.78.86-.085.015-.172.02-.26.016a2.37 2.37 0 01-.756-.116l-.019-.028c-.897-.253-2.395-.887-4.89-2.263a29.127 29.127 0 01-4.11-2.714 21.54 21.54 0 01-1.847-1.639l-.187-.187-.062-.062a21.539 21.539 0 01-1.64-1.848 29.153 29.153 0 01-2.714-4.108c-1.376-2.496-2.01-3.993-2.262-4.892l-.028-.018a2.37 2.37 0 01-.116-.757 1.08 1.08 0 01.016-.26c.072-.581.36-1.175.861-1.78.004-.008.008-.008.012-.016a8.766 8.766 0 012.158-1.751c.004 0 .012-.004.017-.004.811-.423 1.582-.28 2.105.338.004.004 1.09 1.308 1.557 1.945.48.675.925 1.374 1.336 2.094.534.959.2 1.94-.326 2.345l-1.059.842c-.535.432-.464 1.234-.464 1.234s1.568 5.936 7.43 7.432z" fill="#fff"/></svg>