<svg width="39" height="38" fill="none" xmlns="http://www.w3.org/2000/svg"><path d="M9.555.292c-.845.03-1.933.096-2.427.194-.755.151-1.468.38-2.061.68a7.275 7.275 0 00-3.212 3.178c-.301.584-.532 1.286-.685 2.03-.102.494-.17 1.58-.2 2.422-.011.331-.017.663-.019.994L.948 28.255c0 .204.007.65.019.994.03.837.096 1.914.196 2.404.152.748.383 1.454.686 2.042a7.279 7.279 0 003.208 3.181c.59.298 1.298.527 2.049.679.5.1 1.596.168 2.445.198.347.012.797.018 1.004.018l18.64.003c.207 0 .657-.006 1.005-.018.844-.03 1.932-.095 2.426-.194.755-.151 1.468-.38 2.061-.68a7.28 7.28 0 003.212-3.178c.301-.584.532-1.285.685-2.029.102-.495.17-1.58.2-2.422.013-.345.019-.79.019-.995l.003-18.465c0-.204-.006-.65-.019-.994-.03-.836-.096-1.914-.196-2.404-.152-.748-.383-1.454-.685-2.041a7.278 7.278 0 00-3.209-3.182C34.107.874 33.4.645 32.648.493c-.5-.1-1.596-.167-2.445-.198a33.95 33.95 0 00-1.004-.018L10.559.274c-.335.001-.67.007-1.004.018z" fill="url(#paint0_linear_651_582)"/><path fill-rule="evenodd" clip-rule="evenodd" d="M26.44 21.492c-.338-.167-1.995-.975-2.305-1.086-.309-.112-.534-.167-.758.167-.225.334-.871 1.086-1.068 1.31-.197.222-.393.25-.73.083-.338-.167-1.424-.52-2.712-1.658-1.003-.885-1.68-1.978-1.876-2.313-.197-.334-.02-.515.148-.681.152-.15.337-.39.506-.585.168-.195.225-.334.337-.557.112-.223.056-.418-.028-.585-.084-.167-.759-1.81-1.04-2.48-.274-.65-.551-.562-.758-.572a13.26 13.26 0 00-.647-.012c-.225 0-.59.083-.899.418-.309.334-1.18 1.142-1.18 2.785 0 1.644 1.208 3.231 1.377 3.454.168.223 2.378 3.596 5.76 5.042.805.344 1.433.55 1.922.703.808.255 1.543.219 2.124.133.648-.096 1.995-.808 2.276-1.588.28-.78.28-1.449.197-1.588-.085-.14-.31-.223-.647-.39zm-6.153 8.319h-.005a11.285 11.285 0 01-5.708-1.549l-.41-.24-4.245 1.103 1.133-4.1-.267-.42a11.002 11.002 0 01-1.714-5.91c.002-6.124 5.034-11.107 11.22-11.107a11.196 11.196 0 017.93 3.258 10.985 10.985 0 013.282 7.858c-.002 6.124-5.034 11.107-11.216 11.107zm9.546-20.56a13.477 13.477 0 00-9.546-3.92c-7.438 0-13.492 5.995-13.495 13.363a13.24 13.24 0 001.801 6.68L6.68 32.3l7.154-1.858a13.59 13.59 0 006.449 1.627h.005c7.437 0 13.492-5.995 13.495-13.364a13.213 13.213 0 00-3.95-9.453z" fill="#fff"/><defs><linearGradient id="paint0_linear_651_582" x1="19.877" y1=".274" x2="19.877" y2="37.774" gradientUnits="userSpaceOnUse"><stop stop-color="#25CF43"/><stop offset="1" stop-color="#61FD7D"/></linearGradient></defs></svg>