<svg viewBox="0 0 26 20" xmlns="http://www.w3.org/2000/svg"><g clip-path="url(#clip0_602_124)"><mask id="mask0_602_124" style="mask-type:alpha" maskUnits="userSpaceOnUse" x="0" y="0" width="26" height="20"><path d="M25.721 4.667A6.543 6.543 0 0024.7 2 4.064 4.064 0 0022.1.857c-3.621-.19-9.1-.19-9.1-.19s-5.479 0-9.1.285A3.198 3.198 0 001.3 2 6.11 6.11 0 00.279 4.667 39.243 39.243 0 000 8.952v2a37.01 37.01 0 00.279 4.286c.14.956.49 1.868 1.021 2.667a4.474 4.474 0 002.879 1.143c2.042.19 8.821.285 8.821.285s5.479 0 9.1-.285a4.064 4.064 0 002.6-1.143 6.108 6.108 0 001.021-2.667A39.35 39.35 0 0026 10.952v-2a39.25 39.25 0 00-.279-4.285zm-15.414 8.761V5.905l7.057 3.714-7.057 3.81z" fill="#fff"/></mask><g mask="url(#mask0_602_124)"><path d="M25.721 4.667A6.543 6.543 0 0024.7 2 4.064 4.064 0 0022.1.857c-3.621-.19-9.1-.19-9.1-.19s-5.479 0-9.1.285A3.198 3.198 0 001.3 2 6.11 6.11 0 00.279 4.667 39.243 39.243 0 000 8.952v2a37.01 37.01 0 00.279 4.286c.14.956.49 1.868 1.021 2.667a4.474 4.474 0 002.879 1.143c2.042.19 8.821.285 8.821.285s5.479 0 9.1-.285a4.064 4.064 0 002.6-1.143 6.108 6.108 0 001.021-2.667A39.35 39.35 0 0026 10.952v-2a39.25 39.25 0 00-.279-4.285zm-15.414 8.761V5.905l7.057 3.714-7.057 3.81z" fill="inherit"/></g></g><defs><clipPath id="clip0_602_124"><path fill="#fff" d="M0 0h26v20H0z"/></clipPath></defs></svg>