<svg viewBox="0 0 16 17" xmlns="http://www.w3.org/2000/svg">
	<path
		d="M10.6667 11.1667C11.7713 11.1667 12.6667 12.062 12.6667 13.1667C12.6667 14.2713 11.7713 15.1667 10.6667 15.1667C9.562 15.1667 8.66667 14.2713 8.66667 13.1667C8.66667 12.062 9.562 11.1667 10.6667 11.1667ZM4 8.5C5.47333 8.5 6.66667 9.69333 6.66667 11.1667C6.66667 12.64 5.47333 13.8333 4 13.8333C2.52667 13.8333 1.33333 12.64 1.33333 11.1667C1.33333 9.69333 2.52667 8.5 4 8.5ZM10.6667 12.5C10.2987 12.5 10 12.7987 10 13.1667C10 13.5347 10.2987 13.8333 10.6667 13.8333C11.0347 13.8333 11.3333 13.5347 11.3333 13.1667C11.3333 12.7987 11.0347 12.5 10.6667 12.5ZM4 9.83333C3.26333 9.83333 2.66667 10.43 2.66667 11.1667C2.66667 11.9033 3.26333 12.5 4 12.5C4.73667 12.5 5.33333 11.9033 5.33333 11.1667C5.33333 10.43 4.73667 9.83333 4 9.83333ZM9.66667 1.83333C11.692 1.83333 13.3333 3.47467 13.3333 5.5C13.3333 7.52533 11.692 9.16667 9.66667 9.16667C7.64133 9.16667 6 7.52533 6 5.5C6 3.47467 7.64133 1.83333 9.66667 1.83333ZM9.66667 3.16667C8.378 3.16667 7.33333 4.21133 7.33333 5.5C7.33333 6.78867 8.378 7.83333 9.66667 7.83333C10.9553 7.83333 12 6.78867 12 5.5C12 4.21133 10.9553 3.16667 9.66667 3.16667Z"
		fill="inherit" />
</svg>