<svg viewBox="0 0 38 34" xmlns="http://www.w3.org/2000/svg">
	<path
		d="M34.0003 30.334H37.3337V33.6673H0.666992V30.334H4.00033V2.00065C4.00033 1.55862 4.17592 1.1347 4.48848 0.82214C4.80104 0.509579 5.22496 0.333984 5.66699 0.333984H32.3337C32.7757 0.333984 33.1996 0.509579 33.5122 0.82214C33.8247 1.1347 34.0003 1.55862 34.0003 2.00065V30.334ZM30.667 30.334V3.66732H7.33366V30.334H30.667ZM12.3337 15.334H17.3337V18.6673H12.3337V15.334ZM12.3337 8.66732H17.3337V12.0007H12.3337V8.66732ZM12.3337 22.0007H17.3337V25.334H12.3337V22.0007ZM20.667 22.0007H25.667V25.334H20.667V22.0007ZM20.667 15.334H25.667V18.6673H20.667V15.334ZM20.667 8.66732H25.667V12.0007H20.667V8.66732Z"
		fill="inherit" />
</svg>