<svg viewBox="0 0 16 16" xmlns="http://www.w3.org/2000/svg">
	<path
		d="M2.66667 1.33333H13.3333C13.5101 1.33333 13.6797 1.40357 13.8047 1.5286C13.9298 1.65362 14 1.82319 14 2V14C14 14.1768 13.9298 14.3464 13.8047 14.4714C13.6797 14.5964 13.5101 14.6667 13.3333 14.6667H2.66667C2.48986 14.6667 2.32029 14.5964 2.19526 14.4714C2.07024 14.3464 2 14.1768 2 14V2C2 1.82319 2.07024 1.65362 2.19526 1.5286C2.32029 1.40357 2.48986 1.33333 2.66667 1.33333ZM3.33333 2.66667V13.3333H12.6667V2.66667H3.33333ZM4.66667 4H11.3333V6.66667H4.66667V4ZM4.66667 8H6V9.33333H4.66667V8ZM4.66667 10.6667H6V12H4.66667V10.6667ZM7.33333 8H8.66667V9.33333H7.33333V8ZM7.33333 10.6667H8.66667V12H7.33333V10.6667ZM10 8H11.3333V12H10V8Z"
		fill="inherit" />
</svg>