<svg viewBox="0 0 17 16" xmlns="http://www.w3.org/2000/svg">
	<path
		d="M11.6673 2H14.334C14.5108 2 14.6804 2.07024 14.8054 2.19526C14.9304 2.32029 15.0007 2.48986 15.0007 2.66667V13.3333C15.0007 13.5101 14.9304 13.6797 14.8054 13.8047C14.6804 13.9298 14.5108 14 14.334 14H2.33398C2.15717 14 1.9876 13.9298 1.86258 13.8047C1.73756 13.6797 1.66732 13.5101 1.66732 13.3333V2.66667C1.66732 2.48986 1.73756 2.32029 1.86258 2.19526C1.9876 2.07024 2.15717 2 2.33398 2H5.00065V0.666667H6.33398V2H10.334V0.666667H11.6673V2ZM10.334 3.33333H6.33398V4.66667H5.00065V3.33333H3.00065V6H13.6673V3.33333H11.6673V4.66667H10.334V3.33333ZM13.6673 7.33333H3.00065V12.6667H13.6673V7.33333Z"
		fill="inherit" />
</svg>