<svg viewBox="0 0 34 34" xmlns="http://www.w3.org/2000/svg">
<path d="M11.2973 25.1458H22.7014V23.0208H11.2973V25.1458ZM11.2973 19.1249H22.7014V16.9999H11.2973V19.1249ZM7.79102 31.1666C7.22435 31.1666 6.72852 30.9541 6.30352 30.5291C5.87852 30.1041 5.66602 29.6083 5.66602 29.0416V4.95825C5.66602 4.39159 5.87852 3.89575 6.30352 3.47075C6.72852 3.04575 7.22435 2.83325 7.79102 2.83325H20.5764L28.3327 10.5895V29.0416C28.3327 29.6083 28.1202 30.1041 27.6952 30.5291C27.2702 30.9541 26.7743 31.1666 26.2077 31.1666H7.79102ZM19.5139 11.5458V4.95825H7.79102V29.0416H26.2077V11.5458H19.5139Z" fill="inherit"/>
</svg>
