<svg viewBox="0 0 20 20" xmlns="http://www.w3.org/2000/svg">
	<path fill-rule="evenodd" clip-rule="evenodd"
		d="M9.40556 3.48772C8.66993 3.1989 7.87821 3.08127 7.09038 3.14375C6.30256 3.20624 5.53928 3.44719 4.85836 3.84835C4.17745 4.24952 3.59676 4.80038 3.16027 5.45921C2.72378 6.11805 2.44295 6.86757 2.33904 7.65102C2.23513 8.43446 2.31087 9.23128 2.56052 9.98112C2.81018 10.731 3.22719 11.4141 3.77999 11.9789C4.02143 12.2256 4.01719 12.6213 3.7705 12.8628C3.52382 13.1042 3.12811 13.1 2.88667 12.8533C2.2012 12.1529 1.6841 11.3058 1.37453 10.376C1.06496 9.44619 0.971043 8.45814 1.09989 7.48666C1.22874 6.51519 1.57697 5.58578 2.11822 4.76883C2.65946 3.95188 3.37952 3.26881 4.22385 2.77136C5.06819 2.27391 6.01465 1.97514 6.99156 1.89766C7.96846 1.82018 8.95019 1.96603 9.86238 2.32417C10.7746 2.68231 11.5933 3.24334 12.2565 3.96476C12.8133 4.57034 13.2482 5.27561 13.5394 6.04191H14.5833C15.5219 6.04182 16.4358 6.34363 17.1898 6.90276C17.9438 7.46191 18.4979 8.24874 18.7704 9.14702C19.0429 10.0453 19.0192 11.0074 18.7029 11.8912C18.3866 12.775 17.7944 13.5336 17.0138 14.055C16.7268 14.2467 16.3387 14.1695 16.1469 13.8824C15.9552 13.5954 16.0325 13.2073 16.3195 13.0156C16.8771 12.6431 17.3001 12.1013 17.526 11.47C17.7519 10.8387 17.7688 10.1515 17.5742 9.50986C17.3796 8.86823 16.9838 8.30621 16.4452 7.90682C15.9066 7.50742 15.2539 7.29185 14.5834 7.29192H13.0917C12.8154 7.29192 12.5718 7.11049 12.4928 6.84573C12.2667 6.08846 11.8712 5.39257 11.3363 4.81077C10.8015 4.22898 10.1412 3.77654 9.40556 3.48772Z"
		fill="inherit" />
	<path fill-rule="evenodd" clip-rule="evenodd"
		d="M10 9.37527C10.3452 9.37527 10.625 9.65509 10.625 10.0003V17.5003C10.625 17.8455 10.3452 18.1253 10 18.1253C9.65482 18.1253 9.375 17.8455 9.375 17.5003V10.0003C9.375 9.65509 9.65482 9.37527 10 9.37527Z"
		fill="inherit" />
	<path fill-rule="evenodd" clip-rule="evenodd"
		d="M6.22472 13.725C6.4688 13.4809 6.86453 13.4809 7.10861 13.725L10 16.6164L12.8914 13.725C13.1355 13.4809 13.5312 13.4809 13.7753 13.725C14.0194 13.9691 14.0194 14.3648 13.7753 14.6089L10.4419 17.9423C10.1979 18.1863 9.80213 18.1863 9.55806 17.9423L6.22472 14.6089C5.98065 14.3648 5.98065 13.9691 6.22472 13.725Z"
		fill="inherit" />
</svg>