<svg viewBox="0 0 16 16" xmlns="http://www.w3.org/2000/svg">
	<path
		d="M8 2.06632L4.7 5.36632C4.04741 6.01899 3.603 6.85051 3.42297 7.75574C3.24294 8.66097 3.33539 9.59926 3.68861 10.452C4.04183 11.3046 4.63997 12.0335 5.40739 12.5462C6.17481 13.059 7.07704 13.3327 8 13.3327C8.92296 13.3327 9.8252 13.059 10.5926 12.5462C11.36 12.0335 11.9582 11.3046 12.3114 10.452C12.6646 9.59926 12.7571 8.66097 12.577 7.75574C12.397 6.85051 11.9526 6.01899 11.3 5.36632L8 2.06632ZM8 0.18099L12.2427 4.42366C13.0818 5.26277 13.6532 6.33187 13.8847 7.49576C14.1162 8.65964 13.9974 9.86604 13.5433 10.9624C13.0891 12.0587 12.3201 12.9958 11.3334 13.6551C10.3467 14.3144 9.18669 14.6663 8 14.6663C6.81332 14.6663 5.65328 14.3144 4.66659 13.6551C3.6799 12.9958 2.91086 12.0587 2.45673 10.9624C2.0026 9.86604 1.88378 8.65964 2.11529 7.49576C2.34679 6.33187 2.91823 5.26277 3.75734 4.42366L8 0.18099Z"
		fill="inherit" />
</svg>