<svg viewBox="0 0 16 16" xmlns="http://www.w3.org/2000/svg">
	<path
		d="M2 2H14C14.1768 2 14.3464 2.07024 14.4714 2.19526C14.5964 2.32029 14.6667 2.48986 14.6667 2.66667V13.3333C14.6667 13.5101 14.5964 13.6797 14.4714 13.8047C14.3464 13.9298 14.1768 14 14 14H2C1.82319 14 1.65362 13.9298 1.5286 13.8047C1.40357 13.6797 1.33333 13.5101 1.33333 13.3333V2.66667C1.33333 2.48986 1.40357 2.32029 1.5286 2.19526C1.65362 2.07024 1.82319 2 2 2ZM13.3333 4.82533L8.048 9.55867L2.66667 4.81067V12.6667H13.3333V4.82533ZM3.00733 3.33333L8.04067 7.77467L13.0013 3.33333H3.00733Z"
		fill="inherit" />
</svg>