<svg viewBox="0 0 40 40" xmlns="http://www.w3.org/2000/svg">
	<path d="M31.6667 34.9999H8.33333C7.89131 34.9999 7.46738 34.8243 7.15482 34.5117C6.84226 34.1992 6.66667 33.7752 6.66667 33.3332V18.3332H1.66667L18.8783 2.68653C19.1852 2.40733 19.5851 2.2526 20 2.2526C20.4149 2.2526 20.8148 2.40733 21.1217 2.68653L38.3333 18.3332H33.3333V33.3332C33.3333 33.7752 33.1577 34.1992 32.8452 34.5117C32.5326 34.8243 32.1087 34.9999 31.6667 34.9999ZM10 31.6665H30V15.2615L20 6.17153L10 15.2615V31.6665ZM15 16.6665H25V26.6665H15V16.6665ZM18.3333 19.9999V23.3332H21.6667V19.9999H18.3333Z" fill="inherit"/>
</svg>
