<svg viewBox="0 0 23 23" xmlns="http://www.w3.org/2000/svg">
		<path
			d="M16.2307 22.4779C17.1791 22.428 18.0027 22.2866 18.7015 22.0536C19.5333 21.7542 20.2571 21.2966 20.8727 20.681C21.4883 20.0654 21.9458 19.3417 22.2453 18.5098C22.4782 17.811 22.6196 16.9874 22.6696 16.0391C22.7195 15.0907 22.7444 13.5351 22.7444 11.3722C22.7444 9.2093 22.7278 7.66199 22.6945 6.73028C22.628 5.76529 22.4782 4.9334 22.2453 4.23462C21.9458 3.40273 21.4883 2.67899 20.8727 2.0634C20.2571 1.4478 19.5333 0.990262 18.7015 0.690782C18.0027 0.457854 17.1791 0.316433 16.2307 0.26652C15.2824 0.216607 13.7268 0.19165 11.5639 0.19165C9.40096 0.19165 7.84533 0.216607 6.89698 0.26652C5.94863 0.316433 5.12506 0.457854 4.42628 0.690782C3.59439 0.990262 2.87065 1.4478 2.25505 2.0634C1.63946 2.67899 1.18192 3.40273 0.882442 4.23462C0.649514 4.9334 0.508093 5.75697 0.45818 6.70532C0.41226 7.57781 0.387463 8.96429 0.383789 10.8648V11.8796C0.387463 13.7801 0.41226 15.1666 0.45818 16.0391C0.508093 16.9874 0.649514 17.811 0.882442 18.5098C1.18192 19.3417 1.63946 20.0654 2.25505 20.681C2.87065 21.2966 3.59439 21.7375 4.42628 22.0037C5.12506 22.2699 5.94863 22.428 6.89698 22.4779C7.76946 22.5238 9.15595 22.5486 11.0564 22.5523H12.0713C13.9718 22.5486 15.3583 22.5238 16.2307 22.4779ZM12.5998 20.5562H10.7653C9.43424 20.5562 8.4027 20.5396 7.67064 20.5063C6.43944 20.4398 5.54101 20.3067 4.97532 20.107C3.97706 19.7077 3.26164 18.9923 2.82906 17.9607C2.6294 17.3951 2.4963 16.4966 2.42975 15.2654C2.39856 14.5791 2.38198 13.6296 2.38003 12.4169L2.37984 10.5736C2.37984 9.24258 2.39648 8.21104 2.42975 7.47898C2.4963 6.21451 2.6294 5.31607 2.82906 4.78366C3.22836 3.75213 3.94378 3.0367 4.97532 2.6374C5.54101 2.43774 6.43944 2.30464 7.67064 2.23809C8.35694 2.2069 9.30646 2.19032 10.5192 2.18837L12.3625 2.18818C13.6935 2.18818 14.725 2.20482 15.4571 2.23809C16.7216 2.30464 17.62 2.43774 18.1524 2.6374C19.1839 3.0367 19.8994 3.75213 20.2987 4.78366C20.4983 5.31607 20.6314 6.21451 20.698 7.47898C20.7293 8.13666 20.7459 9.0891 20.7479 10.3363V12.1708C20.7479 13.5018 20.7313 14.5334 20.698 15.2654C20.6314 16.4966 20.4983 17.3951 20.2987 17.9607C19.8994 18.959 19.1839 19.6744 18.1524 20.107C17.62 20.3067 16.7216 20.4398 15.4571 20.5063C14.7994 20.5376 13.847 20.5542 12.5998 20.5562ZM17.5534 6.73028C17.9195 6.73028 18.2273 6.59718 18.4768 6.33097C18.7264 6.06477 18.8678 5.74865 18.9011 5.38262C18.9011 5.01659 18.768 4.70048 18.5018 4.43427C18.2356 4.16807 17.9195 4.03497 17.5534 4.03497C17.1874 4.03497 16.8713 4.16807 16.6051 4.43427C16.3389 4.70048 16.2058 5.01659 16.2058 5.38262C16.2058 5.74865 16.3389 6.06477 16.6051 6.33097C16.8713 6.59718 17.1874 6.73028 17.5534 6.73028ZM11.5639 17.1122C12.5954 17.1122 13.5521 16.8543 14.4339 16.3386C15.3157 15.8228 16.0145 15.124 16.5302 14.2422C17.046 13.3604 17.3039 12.4037 17.3039 11.3722C17.3039 10.3407 17.046 9.384 16.5302 8.5022C16.0145 7.6204 15.3157 6.92161 14.4339 6.40584C13.5521 5.89007 12.5954 5.63219 11.5639 5.63219C10.5323 5.63219 9.57566 5.89007 8.69386 6.40584C7.81206 6.92161 7.11327 7.6204 6.5975 8.5022C6.08173 9.384 5.82385 10.3407 5.82385 11.3722C5.82385 12.4037 6.08173 13.3604 6.5975 14.2422C7.11327 15.124 7.81206 15.8228 8.69386 16.3386C9.57566 16.8543 10.5323 17.1122 11.5639 17.1122ZM11.5639 15.1157C10.5323 15.1157 9.65053 14.7497 8.91847 14.0176C8.18641 13.2855 7.82038 12.4037 7.82038 11.3722C7.82038 10.3407 8.18641 9.45887 8.91847 8.72681C9.65053 7.99475 10.5323 7.62872 11.5639 7.62872C12.5954 7.62872 13.4772 7.99475 14.2093 8.72681C14.9413 9.45887 15.3074 10.3407 15.3074 11.3722C15.3074 12.4037 14.9413 13.2855 14.2093 14.0176C13.4772 14.7497 12.5954 15.1157 11.5639 15.1157Z"
			fill="inherit" />
</svg>