<svg viewBox="0 0 40 40" xmlns="http://www.w3.org/2000/svg">
	<path
		d="M10.3917 10.755C8.26674 12.9605 6.96583 15.8303 6.70762 18.8819C6.4494 21.9336 7.24962 24.9812 8.97376 27.5124C10.6979 30.0435 13.2409 31.904 16.1752 32.781C19.1095 33.6581 22.2563 33.4982 25.0867 32.3283C25.2783 31.0783 24.8583 29.8783 24.6867 29.4583C24.3033 28.525 23.04 26.93 20.9317 24.7183C20.3683 24.1267 20.405 23.6717 20.6067 22.3233L20.6283 22.1717C20.765 21.2483 20.995 20.7017 24.1033 20.2083C25.6833 19.9583 26.0983 20.5883 26.6733 21.4633L26.8667 21.75C27.4133 22.55 27.8183 22.7333 28.43 23.01C28.705 23.135 29.0467 23.2933 29.505 23.5517C30.5917 24.1733 30.5917 24.875 30.5917 26.4117V26.5867C30.5917 27.2383 30.5283 27.8117 30.4283 28.31C31.7073 26.7049 32.5985 24.8262 33.0326 22.8203C33.4668 20.8144 33.4321 18.7354 32.9314 16.7451C32.4306 14.7547 31.4772 12.9068 30.1455 11.3452C28.8138 9.78362 27.1396 8.55043 25.2533 7.74167C24.3317 8.36333 23.0667 9.245 22.625 9.85C22.4 10.1583 22.08 11.7367 21.0417 11.8667C20.7717 11.9 20.4067 11.8767 20.02 11.8517C18.9833 11.785 17.5667 11.6933 17.1133 12.925C16.825 13.705 16.775 15.825 17.7067 16.925C17.8567 17.1 17.885 17.425 17.7833 17.79C17.65 18.2683 17.3817 18.56 17.2967 18.62C17.1367 18.5267 16.8167 18.155 16.5983 17.9033C16.0767 17.295 15.4233 16.5367 14.58 16.3033C14.2733 16.2183 13.9367 16.1483 13.6083 16.0783C12.6933 15.8867 11.6583 15.6683 11.4167 15.155C11.24 14.7783 11.2417 14.26 11.2417 13.7133C11.2417 13.0183 11.2417 12.2333 10.9017 11.4717C10.7835 11.1998 10.6098 10.9557 10.3917 10.755ZM20 36.6667C10.795 36.6667 3.33333 29.205 3.33333 20C3.33333 10.795 10.795 3.33333 20 3.33333C29.205 3.33333 36.6667 10.795 36.6667 20C36.6667 29.205 29.205 36.6667 20 36.6667Z"
		fill="inherit" />
</svg>