<svg viewBox="0 0 25 24" xmlns="http://www.w3.org/2000/svg">
	<g clip-path="url(#clip0_161_1802)">
		<path
			d="M19.03 17.364L12.666 23.728L6.30202 17.364C5.04336 16.1054 4.1862 14.5017 3.83894 12.7559C3.49169 11.0101 3.66992 9.20047 4.35111 7.55595C5.03231 5.91142 6.18586 4.50582 7.6659 3.51689C9.14594 2.52796 10.886 2.00012 12.666 2.00012C14.446 2.00012 16.1861 2.52796 17.6661 3.51689C19.1462 4.50582 20.2997 5.91142 20.9809 7.55595C21.6621 9.20047 21.8404 11.0101 21.4931 12.7559C21.1458 14.5017 20.2887 16.1054 19.03 17.364ZM12.666 15C13.7269 15 14.7443 14.5786 15.4944 13.8285C16.2446 13.0783 16.666 12.0609 16.666 11C16.666 9.93918 16.2446 8.92176 15.4944 8.17162C14.7443 7.42147 13.7269 7.00004 12.666 7.00004C11.6052 7.00004 10.5877 7.42147 9.83759 8.17162C9.08745 8.92176 8.66602 9.93918 8.66602 11C8.66602 12.0609 9.08745 13.0783 9.83759 13.8285C10.5877 14.5786 11.6052 15 12.666 15ZM12.666 13C12.1356 13 11.6269 12.7893 11.2518 12.4143C10.8767 12.0392 10.666 11.5305 10.666 11C10.666 10.4696 10.8767 9.9609 11.2518 9.58583C11.6269 9.21076 12.1356 9.00004 12.666 9.00004C13.1965 9.00004 13.7052 9.21076 14.0802 9.58583C14.4553 9.9609 14.666 10.4696 14.666 11C14.666 11.5305 14.4553 12.0392 14.0802 12.4143C13.7052 12.7893 13.1965 13 12.666 13Z"
			fill="inherit" />
	</g>
	<defs>
		<clipPath id="clip0_161_1802">
			<rect width="24" height="24" fill="white" transform="translate(0.666016)" />
		</clipPath>
	</defs>
</svg>