<svg viewBox="0 0 26 26">
	<path
		d="M12.9997 12.7295C13.5233 12.7295 13.9702 12.5444 14.3403 12.1743C14.7104 11.8041 14.8955 11.3573 14.8955 10.8337C14.8955 10.31 14.7104 9.86317 14.3403 9.49303C13.9702 9.12289 13.5233 8.93783 12.9997 8.93783C12.4761 8.93783 12.0292 9.12289 11.659 9.49303C11.2889 9.86317 11.1038 10.31 11.1038 10.8337C11.1038 11.3573 11.2889 11.8041 11.659 12.1743C12.0292 12.5444 12.4761 12.7295 12.9997 12.7295ZM12.9997 23.8337C10.0927 21.36 7.92155 19.0625 6.48613 16.9409C5.05072 14.8194 4.33301 12.8559 4.33301 11.0503C4.33301 8.34199 5.20419 6.18435 6.94655 4.57741C8.68891 2.97046 10.7066 2.16699 12.9997 2.16699C15.2927 2.16699 17.3104 2.97046 19.0528 4.57741C20.7952 6.18435 21.6663 8.34199 21.6663 11.0503C21.6663 12.8559 20.9486 14.8194 19.5132 16.9409C18.0778 19.0625 15.9066 21.36 12.9997 23.8337Z"
		fill="inherit" />
</svg>