<svg viewBox="0 0 25 24" xmlns="http://www.w3.org/2000/svg">
	<g clip-path="url(#clip0_161_1798)">
		<path
			d="M21.334 16.42V19.956C21.3341 20.2092 21.2382 20.453 21.0656 20.6382C20.893 20.8234 20.6565 20.9363 20.404 20.954C19.967 20.984 19.61 21 19.334 21C10.497 21 3.33398 13.837 3.33398 5C3.33398 4.724 3.34898 4.367 3.37998 3.93C3.39771 3.67744 3.51057 3.44101 3.69579 3.26841C3.88101 3.09581 4.12481 2.99989 4.37798 3H7.91398C8.03802 2.99987 8.15768 3.04586 8.24971 3.12902C8.34174 3.21218 8.39958 3.32658 8.41198 3.45C8.43498 3.68 8.45598 3.863 8.47598 4.002C8.67472 5.38892 9.08199 6.73783 9.68398 8.003C9.77898 8.203 9.71698 8.442 9.53698 8.57L7.37898 10.112C8.69844 13.1865 11.1485 15.6365 14.223 16.956L15.763 14.802C15.8259 14.714 15.9178 14.6509 16.0225 14.6237C16.1272 14.5964 16.2381 14.6068 16.336 14.653C17.601 15.2539 18.9496 15.6601 20.336 15.858C20.475 15.878 20.658 15.9 20.886 15.922C21.0092 15.9346 21.1234 15.9926 21.2063 16.0846C21.2893 16.1766 21.3351 16.2961 21.335 16.42H21.334Z"
			fill="inherit" />
	</g>
	<defs>
		<clipPath id="clip0_161_1798">
			<rect width="24" height="24" fill="white" transform="translate(0.333984)" />
		</clipPath>
	</defs>
</svg>