<svg viewBox="0 0 33 32" xmlns="http://www.w3.org/2000/svg">
	<path
		d="M16.5 1.33333L27.456 3.768C28.0653 3.904 28.5 4.444 28.5 5.06933V18.3853C28.5 21.06 27.1627 23.5587 24.9373 25.0413L16.5 30.6667L8.06267 25.0413C5.836 23.5573 4.5 21.06 4.5 18.3867V5.06933C4.5 4.444 4.93467 3.904 5.544 3.768L16.5 1.33333ZM16.5 4.06533L7.16667 6.13867V18.3853C7.16667 20.168 8.05733 21.8333 9.54133 22.8227L16.5 27.4627L23.4587 22.8227C24.9427 21.8333 25.8333 20.1693 25.8333 18.3867V6.13867L16.5 4.06667V4.06533ZM22.436 10.9627L24.3227 12.848L15.8373 21.3333L10.18 15.676L12.0653 13.7907L15.836 17.5613L22.436 10.9613V10.9627Z"
		fill="inherit" />
</svg>