<svg viewBox="0 0 40 40" xmlns="http://www.w3.org/2000/svg">
<path d="M10 5C15.8167 5 20.6383 9.25667 21.5217 14.825C23.48 12.8733 26.1833 11.6667 29.1667 11.6667H36.6667V15.8333C36.6667 21.8167 31.8167 26.6667 25.8333 26.6667H21.6667V35H18.3333V21.6667H15C8.55667 21.6667 3.33333 16.4433 3.33333 10V5H10ZM33.3333 15H29.1667C25.025 15 21.6667 18.3583 21.6667 22.5V23.3333H25.8333C29.975 23.3333 33.3333 19.975 33.3333 15.8333V15ZM10 8.33333H6.66667V10C6.66667 14.6017 10.3983 18.3333 15 18.3333H18.3333V16.6667C18.3333 12.065 14.6017 8.33333 10 8.33333Z" fill="inherit"/>
</svg>
