<svg viewBox="0 0 25 24" xmlns="http://www.w3.org/2000/svg">
<path d="M12.334 22C6.81098 22 2.33398 17.523 2.33398 12C2.33398 6.477 6.81098 2 12.334 2C17.857 2 22.334 6.477 22.334 12C22.334 17.523 17.857 22 12.334 22ZM9.22398 13.17L9.23698 13.163L10.107 16.033C10.219 16.344 10.373 16.4 10.56 16.374C10.748 16.349 10.847 16.248 10.97 16.13L12.158 14.982L14.708 16.87C15.174 17.127 15.509 16.994 15.625 16.438L17.282 8.616C17.465 7.888 17.145 7.596 16.58 7.828L6.84698 11.588C6.18298 11.854 6.18698 12.226 6.72698 12.391L9.22398 13.171V13.17Z" fill="inherit"/>
</svg>
