<svg width="40" height="40" viewBox="0 0 40 40" fill="none" xmlns="http://www.w3.org/2000/svg">
<path d="M20.1968 39.8454C31.0453 39.8454 39.8398 30.971 39.8398 20.0238C39.8398 9.07659 31.0453 0.202148 20.1968 0.202148C9.34821 0.202148 0.553711 9.07659 0.553711 20.0238C0.553711 30.971 9.34821 39.8454 20.1968 39.8454Z" fill="url(#paint0_linear_651_584)"/>
<path d="M8.72863 19.852L21.9565 14.3524C23.2622 13.7795 27.6904 11.9463 27.6904 11.9463C27.6904 11.9463 29.7342 11.1443 29.5639 13.0921C29.5071 13.8941 29.0529 16.7012 28.5988 19.7375L27.1795 28.7317C27.1795 28.7317 27.0659 30.0493 26.1008 30.2784C25.1357 30.5076 23.5461 29.4764 23.2622 29.2473C23.0351 29.0754 19.0043 26.4974 17.5283 25.2371C17.1309 24.8934 16.6767 24.2059 17.585 23.4039C19.6288 21.5134 22.07 19.1646 23.5461 17.6751C24.2273 16.9876 24.9086 15.3836 22.07 17.3314L14.0652 22.7737C14.0652 22.7737 13.1568 23.3466 11.4537 22.831C9.75052 22.3154 7.76351 21.628 7.76351 21.628C7.76351 21.628 6.40098 20.7686 8.72863 19.852Z" fill="white"/>
<defs>
<linearGradient id="paint0_linear_651_584" x1="26.746" y1="6.81089" x2="16.7733" y2="29.8692" gradientUnits="userSpaceOnUse">
<stop stop-color="#37AEE2"/>
<stop offset="1" stop-color="#1E96C8"/>
</linearGradient>
</defs>
</svg>
