<svg viewBox="0 0 16 16" xmlns="http://www.w3.org/2000/svg">
	<path
		d="M5.33333 3.33333C5.33333 2.62609 5.61429 1.94781 6.11438 1.44772C6.61448 0.947618 7.29276 0.666667 8 0.666667C8.70724 0.666667 9.38552 0.947618 9.88562 1.44772C10.3857 1.94781 10.6667 2.62609 10.6667 3.33333V6.83667C11.482 7.40439 12.0949 8.21749 12.4161 9.15765C12.7373 10.0978 12.75 11.1159 12.4525 12.0638C12.155 13.0118 11.5627 13.84 10.7619 14.428C9.96109 15.016 8.99351 15.333 8 15.333C7.00649 15.333 6.03891 15.016 5.23809 14.428C4.43727 13.84 3.845 13.0118 3.54749 12.0638C3.24997 11.1159 3.26275 10.0978 3.58395 9.15765C3.90515 8.21749 4.51801 7.40439 5.33333 6.83667V3.33333ZM6.096 7.93C5.51345 8.3354 5.0755 8.91615 4.8459 9.58771C4.61631 10.2593 4.60706 10.9866 4.81949 11.6638C5.03193 12.341 5.45497 12.9327 6.02702 13.3528C6.59907 13.7728 7.29027 13.9994 8 13.9994C8.70973 13.9994 9.40093 13.7728 9.97298 13.3528C10.545 12.9327 10.9681 12.341 11.1805 11.6638C11.3929 10.9866 11.3837 10.2593 11.1541 9.58771C10.9245 8.91615 10.4866 8.3354 9.904 7.93L9.33333 7.532V3.33333C9.33333 2.97971 9.19286 2.64057 8.94281 2.39052C8.69276 2.14048 8.35362 2 8 2C7.64638 2 7.30724 2.14048 7.05719 2.39052C6.80714 2.64057 6.66667 2.97971 6.66667 3.33333V7.532L6.096 7.93ZM5.33333 10.6667H10.6667C10.6667 11.3739 10.3857 12.0522 9.88562 12.5523C9.38552 13.0524 8.70724 13.3333 8 13.3333C7.29276 13.3333 6.61448 13.0524 6.11438 12.5523C5.61429 12.0522 5.33333 11.3739 5.33333 10.6667Z"
		fill="inherit" />
</svg>