<svg viewBox="0 0 24 19" xmlns="http://www.w3.org/2000/svg">
		<path
			d="M23.8093 2.3128C22.9244 2.73261 21.9642 2.985 20.9807 3.05628C22.0259 2.47873 22.795 1.5299 23.1236 0.412799C22.1719 0.966876 21.1279 1.35815 20.0379 1.56932C18.6605 0.160664 16.532 -0.297833 14.6634 0.411612C12.7948 1.12106 11.5626 2.85549 11.5522 4.79106C11.5522 5.2041 11.6379 5.53454 11.6379 5.86497C7.67917 5.70827 3.98719 3.899 1.52359 0.908451C1.07742 1.66385 0.841221 2.5175 0.837877 3.38671C0.821701 4.99036 1.66393 6.4889 3.06645 7.35193C2.28746 7.32612 1.52501 7.12829 0.837877 6.77367V6.85628C0.834947 9.1087 2.48756 11.0477 4.78073 11.4824C4.35881 11.5779 3.92817 11.6332 3.49502 11.6476C3.17831 11.6612 2.86114 11.6334 2.55216 11.565C3.2149 13.4988 5.06814 14.8219 7.18073 14.8693C5.44141 16.1812 3.30346 16.9067 1.09502 16.9345C0.69311 16.9482 0.290836 16.9205 -0.10498 16.8519C2.14841 18.24 4.76359 18.9847 7.43788 18.9998C16.5236 18.9998 21.4093 11.7302 21.4093 5.53454V4.95628C22.3214 4.17583 23.1278 3.28766 23.8093 2.3128Z"
			fill="white" />
	
		<path
			d="M23.8093 2.3128C22.9244 2.73261 21.9642 2.985 20.9807 3.05628C22.0259 2.47873 22.795 1.5299 23.1236 0.412799C22.1719 0.966876 21.1279 1.35815 20.0379 1.56932C18.6605 0.160664 16.532 -0.297833 14.6634 0.411612C12.7948 1.12106 11.5626 2.85549 11.5522 4.79106C11.5522 5.2041 11.6379 5.53454 11.6379 5.86497C7.67917 5.70827 3.98719 3.899 1.52359 0.908451C1.07742 1.66385 0.841221 2.5175 0.837877 3.38671C0.821701 4.99036 1.66393 6.4889 3.06645 7.35193C2.28746 7.32612 1.52501 7.12829 0.837877 6.77367V6.85628C0.834947 9.1087 2.48756 11.0477 4.78073 11.4824C4.35881 11.5779 3.92817 11.6332 3.49502 11.6476C3.17831 11.6612 2.86114 11.6334 2.55216 11.565C3.2149 13.4988 5.06814 14.8219 7.18073 14.8693C5.44141 16.1812 3.30346 16.9067 1.09502 16.9345C0.69311 16.9482 0.290836 16.9205 -0.10498 16.8519C2.14841 18.24 4.76359 18.9847 7.43788 18.9998C16.5236 18.9998 21.4093 11.7302 21.4093 5.53454V4.95628C22.3214 4.17583 23.1278 3.28766 23.8093 2.3128Z"
			fill="inherit" />

</svg>