<svg width="44" height="46" viewBox="0 0 44 46" fill="none" xmlns="http://www.w3.org/2000/svg">
<path d="M38.8248 4.67185C37.7042 3.63785 33.1757 0.350467 23.0889 0.305805C23.0889 0.305805 11.1939 -0.411492 5.39532 4.90734C2.16749 8.13585 1.03199 12.8599 0.912215 18.7167C0.79244 24.5735 0.637477 35.5495 11.2176 38.5256H11.2278L11.221 43.0669C11.221 43.0669 11.1533 44.9055 12.3639 45.2803C13.8283 45.7351 14.6877 44.3377 16.0858 42.8314C16.8531 42.0045 17.9128 40.7898 18.7113 39.8614C25.9472 40.4704 31.5124 39.0784 32.1444 38.8727C33.6054 38.399 41.8726 37.34 43.2172 26.3647C44.6051 15.0524 42.5459 7.89698 38.8248 4.67185Z" fill="white"/>
<path d="M36.4712 6.95706C35.5239 6.0963 31.4346 3.52689 22.9021 3.48967C22.9021 3.48967 12.7984 2.82583 7.8937 7.26834C5.16391 9.96362 4.24429 13.9717 4.14346 18.8628C4.04263 23.754 3.52022 33.0978 12.4668 35.5833C12.4668 35.5833 12.4316 42.5201 12.4276 43.1298C12.4276 43.5561 12.4952 43.8478 12.7388 43.908C12.9141 43.9507 13.1767 43.86 13.4 43.6373C14.8305 42.2007 19.4104 36.6755 19.4104 36.6755C25.5555 37.0768 30.4446 35.8635 30.9704 35.6916C32.2101 35.293 38.9155 34.7171 40.0503 25.5506C41.223 16.1019 39.6192 9.65234 36.4712 6.95706Z" fill="#7360F2"/>
<path d="M23.9453 26.1014C23.9453 26.1014 24.7472 26.1691 25.1789 25.6372L26.0207 24.5782C26.4267 24.053 27.4066 23.7181 28.3661 24.2527C29.0852 24.6628 29.7833 25.1086 30.4578 25.5885C31.0946 26.0567 32.3986 27.1449 32.4026 27.1449C33.0238 27.6693 33.1673 28.4394 32.7444 29.2514C32.7444 29.2562 32.741 29.2643 32.741 29.2683C32.2752 30.0759 31.6838 30.8041 30.989 31.4256C30.9809 31.4297 30.9809 31.4338 30.9735 31.4378C30.3698 31.9422 29.7768 32.2289 29.1944 32.2979C29.1087 32.3129 29.0215 32.3184 28.9346 32.3141C28.6777 32.3166 28.4222 32.2773 28.178 32.1978L28.1591 32.17C27.2618 31.9169 25.7636 31.2835 23.2686 29.9071C21.8248 29.12 20.4503 28.212 19.1597 27.1929C18.5128 26.6824 17.8958 26.1352 17.3116 25.554L17.1249 25.3672C17.1039 25.3469 17.0836 25.3259 17.0626 25.3049C16.4814 24.7208 15.9342 24.1037 15.4237 23.4569C14.4047 22.1665 13.4967 20.7922 12.7094 19.3487C11.333 16.853 10.6997 15.3562 10.4466 14.4575L10.4188 14.4386C10.3395 14.1943 10.3004 13.9388 10.3031 13.682C10.2984 13.5951 10.3036 13.5079 10.3187 13.4222C10.3913 12.8407 10.6785 12.2472 11.1801 11.6418C11.1842 11.6343 11.1882 11.6343 11.1923 11.6262C11.8137 10.9315 12.5419 10.3403 13.3496 9.87492C13.3537 9.87492 13.3618 9.87086 13.3665 9.87086C14.1785 9.44793 14.9486 9.59139 15.4724 10.2092C15.4764 10.2133 16.5625 11.5173 17.0288 12.154C17.5087 12.8292 17.9545 13.528 18.3646 14.2477C18.8992 15.2066 18.5642 16.1885 18.0391 16.5932L16.9801 17.435C16.4455 17.8667 16.5159 18.6686 16.5159 18.6686C16.5159 18.6686 18.0844 24.6052 23.9453 26.1014Z" fill="white"/>
</svg>
