<svg viewBox="0 0 25 24" xmlns="http://www.w3.org/2000/svg">
<path d="M2.338 22L3.69 17.032C2.79914 15.5049 2.33109 13.768 2.334 12C2.334 6.477 6.811 2 12.334 2C17.857 2 22.334 6.477 22.334 12C22.334 17.523 17.857 22 12.334 22C10.5668 22.0029 8.83065 21.5352 7.304 20.645L2.338 22ZM8.725 7.308C8.59586 7.31602 8.46967 7.35003 8.354 7.408C8.24552 7.46943 8.14649 7.54622 8.06 7.636C7.94 7.749 7.872 7.847 7.799 7.942C7.42941 8.423 7.23061 9.01342 7.234 9.62C7.236 10.11 7.364 10.587 7.564 11.033C7.973 11.935 8.646 12.89 9.535 13.775C9.749 13.988 9.958 14.202 10.183 14.401C11.2864 15.3725 12.6013 16.073 14.023 16.447L14.592 16.534C14.777 16.544 14.962 16.53 15.148 16.521C15.4392 16.506 15.7236 16.4271 15.981 16.29C16.147 16.202 16.225 16.158 16.364 16.07C16.364 16.07 16.407 16.042 16.489 15.98C16.624 15.88 16.707 15.809 16.819 15.692C16.902 15.606 16.974 15.505 17.029 15.39C17.107 15.227 17.185 14.916 17.217 14.657C17.241 14.459 17.234 14.351 17.231 14.284C17.227 14.177 17.138 14.066 17.041 14.019L16.459 13.758C16.459 13.758 15.589 13.379 15.058 13.137C15.002 13.1126 14.942 13.0987 14.881 13.096C14.8126 13.089 14.7434 13.0967 14.6782 13.1186C14.6131 13.1405 14.5533 13.1761 14.503 13.223V13.221C14.498 13.221 14.431 13.278 13.708 14.154C13.6665 14.2098 13.6093 14.2519 13.5438 14.2751C13.4783 14.2982 13.4073 14.3013 13.34 14.284C13.2748 14.2666 13.211 14.2445 13.149 14.218C13.025 14.166 12.982 14.146 12.897 14.109L12.892 14.107C12.3199 13.8572 11.7902 13.5198 11.322 13.107C11.196 12.997 11.079 12.877 10.959 12.761C10.5656 12.3842 10.2227 11.958 9.939 11.493L9.88 11.398C9.83762 11.3342 9.80336 11.2653 9.778 11.193C9.74 11.046 9.839 10.928 9.839 10.928C9.839 10.928 10.082 10.662 10.195 10.518C10.2891 10.3983 10.3769 10.2738 10.458 10.145C10.576 9.955 10.613 9.76 10.551 9.609C10.271 8.925 9.981 8.244 9.683 7.568C9.624 7.434 9.449 7.338 9.29 7.319C9.236 7.313 9.182 7.307 9.128 7.303C8.9937 7.29633 8.85913 7.29766 8.725 7.307V7.308Z" fill="inherit"/>
</svg>
