<svg viewBox="0 0 26 20" xmlns="http://www.w3.org/2000/svg">
	<g clip-path="url(#clip0_602_124)">
		<mask id="mask0_602_124" style="mask-type:alpha" maskUnits="userSpaceOnUse" x="0" y="0" width="26" height="20">
			<path
				d="M25.7214 4.66663C25.5803 3.71042 25.2312 2.79903 24.7 1.99996C23.9923 1.31575 23.0711 0.910843 22.1 0.857102C18.4786 0.666626 13 0.666626 13 0.666626C13 0.666626 7.52143 0.666626 3.9 0.95234C2.92354 0.880855 1.96791 1.26591 1.3 1.99996C0.755213 2.79157 0.404811 3.70637 0.278571 4.66663C0.107575 6.08872 0.0145714 7.51955 0 8.95234V10.9523C0.00982838 12.3853 0.10285 13.8164 0.278571 15.2381C0.419746 16.1943 0.76884 17.1057 1.3 17.9047C2.09955 18.6194 3.11821 19.0239 4.17857 19.0476C6.22143 19.2381 13 19.3333 13 19.3333C13 19.3333 18.4786 19.3333 22.1 19.0476C23.0711 18.9938 23.9923 18.5889 24.7 17.9047C25.2448 17.1131 25.5952 16.1983 25.7214 15.2381C25.8924 13.816 25.9854 12.3851 26 10.9523V8.95234C25.9854 7.51955 25.8924 6.08872 25.7214 4.66663ZM10.3071 13.4285V5.90472L17.3643 9.61901L10.3071 13.4285Z"
				fill="white" />
		</mask>
		<g mask="url(#mask0_602_124)">
			<path
				d="M25.7214 4.66663C25.5803 3.71042 25.2312 2.79903 24.7 1.99996C23.9923 1.31575 23.0711 0.910843 22.1 0.857102C18.4786 0.666626 13 0.666626 13 0.666626C13 0.666626 7.52143 0.666626 3.9 0.95234C2.92354 0.880855 1.96791 1.26591 1.3 1.99996C0.755213 2.79157 0.404811 3.70637 0.278571 4.66663C0.107575 6.08872 0.0145714 7.51955 0 8.95234V10.9523C0.00982838 12.3853 0.10285 13.8164 0.278571 15.2381C0.419746 16.1943 0.76884 17.1057 1.3 17.9047C2.09955 18.6194 3.11821 19.0239 4.17857 19.0476C6.22143 19.2381 13 19.3333 13 19.3333C13 19.3333 18.4786 19.3333 22.1 19.0476C23.0711 18.9938 23.9923 18.5889 24.7 17.9047C25.2448 17.1131 25.5952 16.1983 25.7214 15.2381C25.8924 13.816 25.9854 12.3851 26 10.9523V8.95234C25.9854 7.51955 25.8924 6.08872 25.7214 4.66663ZM10.3071 13.4285V5.90472L17.3643 9.61901L10.3071 13.4285Z"
				fill="inherit" />
		</g>
	</g>
	<defs>
		<clipPath id="clip0_602_124">
			<rect width="26" height="20" fill="white" />
		</clipPath>
	</defs>
</svg>