<?xml version="1.0" encoding="utf-8"?><svg viewBox="0 0 40 40" xmlns="http://www.w3.org/2000/svg" xmlns:xlink="http://www.w3.org/1999/xlink"><style>:root>svg{display:none}:root>svg:target{display:block}</style><svg viewBox="0 0 24 24" id="angle" xmlns="http://www.w3.org/2000/svg"><path d="M13 16.172l5.364-5.364 1.414 1.414L12 20l-7.778-7.778 1.414-1.414L11 16.172V4h2v12.172z" fill="inherit"/></svg><svg viewBox="0 0 19 25" id="angle-2" xmlns="http://www.w3.org/2000/svg"><path d="M0 15.925l1.575-1.613 6.3 6.3V.887h2.25v19.726l6.338-6.338 1.575 1.612L9 24.925l-9-9z" fill="inherit"/></svg><svg viewBox="0 0 14 8" id="arrow" xmlns="http://www.w3.org/2000/svg"><path fill-rule="evenodd" clip-rule="evenodd" d="M14 1.393L12.524 0 7 5.214 1.476 0 0 1.393 7 8l7-6.607z" fill="inherit"/></svg><svg viewBox="0 0 24 24" id="bars" xmlns="http://www.w3.org/2000/svg"><path d="M3 12h2v9H3v-9zm16-4h2v13h-2V8zm-8-6h2v19h-2V2z" fill="inherit"/></svg><svg viewBox="0 0 16 17" id="bubbles" xmlns="http://www.w3.org/2000/svg"><path d="M10.667 11.167a2 2 0 110 4 2 2 0 010-4zM4 8.5a2.666 2.666 0 110 5.333A2.666 2.666 0 114 8.5zm6.667 4a.667.667 0 100 1.334.667.667 0 000-1.334zM4 9.833A1.333 1.333 0 104 12.5a1.333 1.333 0 000-2.666zm5.667-8a3.666 3.666 0 110 7.333 3.666 3.666 0 010-7.333zm0 1.334a2.333 2.333 0 100 4.666 2.333 2.333 0 000-4.666z" fill="inherit"/></svg><svg viewBox="0 0 38 34" id="building" xmlns="http://www.w3.org/2000/svg"><path d="M34 30.334h3.334v3.333H.667v-3.333H4V2.001A1.667 1.667 0 015.667.334h26.667A1.667 1.667 0 0134 2.001v28.333zm-3.333 0V3.667H7.334v26.667h23.333zm-18.333-15h5v3.333h-5v-3.333zm0-6.667h5v3.334h-5V8.667zm0 13.334h5v3.333h-5v-3.333zm8.333 0h5v3.333h-5v-3.333zm0-6.667h5v3.333h-5v-3.333zm0-6.667h5v3.334h-5V8.667z" fill="inherit"/></svg><svg viewBox="0 0 16 16" id="calculator" xmlns="http://www.w3.org/2000/svg"><path d="M2.667 1.333h10.666A.667.667 0 0114 2v12a.666.666 0 01-.667.667H2.667A.667.667 0 012 14V2a.667.667 0 01.667-.667zm.666 1.334v10.666h9.334V2.667H3.333zM4.667 4h6.666v2.667H4.667V4zm0 4H6v1.333H4.667V8zm0 2.667H6V12H4.667v-1.333zM7.333 8h1.334v1.333H7.333V8zm0 2.667h1.334V12H7.333v-1.333zM10 8h1.333v4H10V8z" fill="inherit"/></svg><svg viewBox="0 0 17 16" id="calendar" xmlns="http://www.w3.org/2000/svg"><path d="M11.667 2h2.667a.667.667 0 01.667.667v10.666a.667.667 0 01-.667.667h-12a.666.666 0 01-.667-.667V2.667A.667.667 0 012.334 2h2.667V.667h1.333V2h4V.667h1.333V2zm-1.333 1.333h-4v1.334H5.001V3.333H3V6h10.666V3.333h-2v1.334h-1.333V3.333zm3.333 4H3.001v5.334h10.666V7.333z" fill="inherit"/></svg><svg viewBox="0 0 14 10" id="check" xmlns="http://www.w3.org/2000/svg"><path d="M5.088 9.387l-4.2-4.2.806-.806 3.394 3.394 7.2-7.2.806.806-8.006 8.006z" fill="inherit"/></svg><svg viewBox="0 0 16 16" id="check--with_border" xmlns="http://www.w3.org/2000/svg"><path d="M8 14.667A6.667 6.667 0 118 1.334a6.667 6.667 0 010 13.333zm0-1.334A5.333 5.333 0 108 2.667a5.333 5.333 0 000 10.666zm-.665-2.666L4.507 7.838l.942-.943 1.886 1.886 3.771-3.771.943.943-4.714 4.714z" fill="inherit"/></svg><svg viewBox="0 0 17 16" id="chevron" xmlns="http://www.w3.org/2000/svg"><path fill-rule="evenodd" clip-rule="evenodd" d="M3.98 5.646a.5.5 0 01.707 0l3.646 3.647 3.647-3.647a.5.5 0 11.707.708l-4 4a.5.5 0 01-.707 0l-4-4a.5.5 0 010-.708z" fill="inherit"/></svg><svg viewBox="0 0 16 16" id="clock" xmlns="http://www.w3.org/2000/svg"><path d="M8 14.667A6.667 6.667 0 118 1.334a6.667 6.667 0 010 13.333zm0-1.334A5.333 5.333 0 108 2.667a5.333 5.333 0 000 10.666zM8.667 8h2.666v1.333h-4V4.667h1.334V8z" fill="inherit"/></svg><svg fill="none" viewBox="0 0 25 24" id="dashes" xmlns="http://www.w3.org/2000/svg"><path d="M5.5 11h14v2h-14v-2z" fill="inherit"/></svg><svg viewBox="0 0 16 17" id="density" xmlns="http://www.w3.org/2000/svg"><path d="M12 5.167h2.667V6.5h-4v-4H12v2.667zM5.333 6.5h-4V5.167H4V2.5h1.333v4zM12 11.833V14.5h-1.333v-4h4v1.333H12zM5.333 10.5v4H4v-2.667H1.333V10.5h4z" fill="inherit"/></svg><svg viewBox="0 0 20 20" id="download" xmlns="http://www.w3.org/2000/svg"><path fill-rule="evenodd" clip-rule="evenodd" d="M9.406 3.488a5.208 5.208 0 00-5.626 8.49.625.625 0 01-.893.875 6.459 6.459 0 1110.652-6.811h1.044a4.375 4.375 0 012.43 8.013.625.625 0 01-.694-1.04 3.125 3.125 0 00-1.736-5.723h-1.491a.625.625 0 01-.6-.446 5.208 5.208 0 00-3.086-3.358z" fill="inherit"/><path fill-rule="evenodd" clip-rule="evenodd" d="M10 9.375c.345 0 .625.28.625.625v7.5a.625.625 0 11-1.25 0V10c0-.345.28-.625.625-.625z" fill="inherit"/><path fill-rule="evenodd" clip-rule="evenodd" d="M6.225 13.725a.625.625 0 01.884 0L10 16.616l2.891-2.891a.625.625 0 11.884.884l-3.333 3.333a.625.625 0 01-.884 0L6.225 14.61a.625.625 0 010-.884z" fill="inherit"/></svg><svg viewBox="0 0 16 16" id="drop" xmlns="http://www.w3.org/2000/svg"><path d="M8 2.066l-3.3 3.3a4.667 4.667 0 106.6 0L8 2.066zM8 .181l4.243 4.243a6 6 0 11-8.486 0L8 .18z" fill="inherit"/></svg><svg viewBox="0 0 16 16" id="envelope" xmlns="http://www.w3.org/2000/svg"><path d="M2 2h12a.667.667 0 01.667.667v10.666A.667.667 0 0114 14H2a.666.666 0 01-.667-.667V2.667A.667.667 0 012 2zm11.333 2.825L8.048 9.56 2.667 4.81v7.856h10.666V4.825zM3.007 3.333l5.034 4.442L13 3.333H3.007z" fill="inherit"/></svg><svg viewBox="0 0 24 24" id="fb" xmlns="http://www.w3.org/2000/svg"><path d="M6.325 12.782h2.63v10.83c0 .215.174.388.388.388h4.46a.387.387 0 00.388-.387v-10.78h3.024a.387.387 0 00.385-.342l.459-3.988a.387.387 0 00-.385-.431h-3.483v-2.5c0-.753.405-1.135 1.206-1.135h2.277a.387.387 0 00.387-.387V.39a.387.387 0 00-.387-.387h-3.139A3.085 3.085 0 0014.392 0c-.545 0-2.438.107-3.934 1.483-1.657 1.524-1.426 3.35-1.371 3.666v2.923H6.325a.387.387 0 00-.387.387v3.936c0 .214.173.387.387.387z" fill="inherit"/></svg><svg viewBox="0 0 15 16" id="hammer" xmlns="http://www.w3.org/2000/svg"><path d="M8.001 14.167V15.5h-8v-1.333h8zm.39-12.876l5.186 5.185-.943.944-.706-.236-1.652 1.65 3.772 3.771-.943.943-3.77-3.772-1.603 1.603.188.755-.943.942-5.185-5.185.943-.943.753.188 4.196-4.195-.235-.707.943-.943zm.472 2.357L4.149 8.362l2.357 2.357 4.714-4.713-2.357-2.358z" fill="inherit"/></svg><svg viewBox="0 0 24 24" id="heart" xmlns="http://www.w3.org/2000/svg"><path d="M12.001 4.529a5.998 5.998 0 018.242.228 6 6 0 01.236 8.236l-8.48 8.492-8.478-8.492a6 6 0 018.48-8.464zm6.826 1.641a3.998 3.998 0 00-5.49-.153l-1.335 1.198-1.336-1.197a3.999 3.999 0 00-5.494.154 4 4 0 00-.192 5.451L12 18.654l7.02-7.03a4 4 0 00-.193-5.454z" fill="inherit"/></svg><svg viewBox="0 0 40 40" id="home" xmlns="http://www.w3.org/2000/svg"><path d="M31.667 35H8.333a1.667 1.667 0 01-1.666-1.667v-15h-5L18.878 2.687a1.667 1.667 0 012.244 0l17.211 15.646h-5v15A1.667 1.667 0 0131.667 35zM10 31.666h20V15.261l-10-9.09-10 9.09v16.406zm5-15h10v10H15v-10zM18.333 20v3.333h3.334V20h-3.334z" fill="inherit"/></svg><svg viewBox="0 0 23 23" id="insta" xmlns="http://www.w3.org/2000/svg"><path d="M16.23 22.478c.95-.05 1.773-.191 2.471-.424a5.817 5.817 0 002.172-1.373 5.818 5.818 0 001.372-2.171c.233-.699.375-1.523.425-2.47.05-.95.074-2.505.074-4.668 0-2.163-.016-3.71-.05-4.642-.066-.965-.216-1.797-.449-2.495a5.818 5.818 0 00-1.372-2.172A5.818 5.818 0 0018.7.691c-.698-.233-1.522-.375-2.47-.424-.949-.05-2.504-.075-4.667-.075S7.845.217 6.897.267c-.948.05-1.772.19-2.47.424-.833.3-1.556.757-2.172 1.372A5.818 5.818 0 00.882 4.235C.65 4.933.508 5.757.458 6.705c-.046.873-.07 2.26-.074 4.16v1.015c.003 1.9.028 3.287.074 4.16.05.947.192 1.771.424 2.47.3.832.757 1.555 1.373 2.171a5.32 5.32 0 002.171 1.323c.7.266 1.523.424 2.471.474.872.046 2.259.07 4.16.074h1.014c1.9-.003 3.287-.028 4.16-.074zm-3.63-1.922h-1.835c-1.33 0-2.362-.016-3.094-.05-1.232-.066-2.13-.2-2.696-.399-.998-.4-1.713-1.115-2.146-2.146-.2-.566-.333-1.464-.4-2.696a69.072 69.072 0 01-.049-2.848v-1.843c0-1.331.016-2.363.05-3.095.066-1.264.2-2.163.4-2.695.398-1.032 1.114-1.747 2.145-2.147.566-.2 1.464-.332 2.696-.399a69.074 69.074 0 012.848-.05h1.844c1.33 0 2.362.017 3.094.05 1.265.067 2.163.2 2.695.4 1.032.399 1.747 1.114 2.147 2.146.2.532.332 1.43.399 2.695.031.658.048 1.61.05 2.857v1.835c0 1.33-.017 2.362-.05 3.094-.067 1.232-.2 2.13-.4 2.696-.399.998-1.114 1.713-2.146 2.146-.532.2-1.43.333-2.695.4-.658.03-1.61.047-2.857.05zM17.553 6.73c.366 0 .674-.133.924-.399s.39-.582.424-.948c0-.366-.133-.683-.4-.949a1.296 1.296 0 00-.948-.399c-.366 0-.682.133-.948.4-.266.265-.4.582-.4.948s.134.682.4.948c.266.266.582.4.948.4zm-5.99 10.382a5.586 5.586 0 002.87-.773 5.757 5.757 0 002.097-2.097 5.585 5.585 0 00.774-2.87 5.585 5.585 0 00-.774-2.87 5.756 5.756 0 00-2.096-2.096 5.586 5.586 0 00-2.87-.774 5.585 5.585 0 00-2.87.774 5.757 5.757 0 00-2.097 2.096 5.586 5.586 0 00-.773 2.87c0 1.032.258 1.988.774 2.87a5.757 5.757 0 002.096 2.097 5.586 5.586 0 002.87.773zm0-1.996c-1.03 0-1.912-.366-2.645-1.098-.732-.732-1.098-1.614-1.098-2.646 0-1.031.366-1.913 1.098-2.645.733-.732 1.614-1.098 2.646-1.098 1.031 0 1.913.366 2.645 1.098.732.732 1.098 1.614 1.098 2.645 0 1.032-.366 1.914-1.098 2.646-.732.732-1.614 1.098-2.645 1.098z" fill="inherit"/></svg><svg viewBox="0 0 20 20" id="loupe" xmlns="http://www.w3.org/2000/svg"><path d="M9.167 1.667c4.14 0 7.5 3.36 7.5 7.5 0 4.14-3.36 7.5-7.5 7.5-4.14 0-7.5-3.36-7.5-7.5 0-4.14 3.36-7.5 7.5-7.5zm0 13.333A5.832 5.832 0 0015 9.167a5.832 5.832 0 00-5.833-5.834 5.831 5.831 0 00-5.834 5.834A5.832 5.832 0 009.167 15zm7.07.06l2.358 2.356-1.18 1.179-2.356-2.357 1.179-1.179z" fill="inherit" fill-opacity=".8"/></svg><svg viewBox="0 0 40 40" id="map" xmlns="http://www.w3.org/2000/svg"><path d="M10.392 10.755a13.333 13.333 0 0014.695 21.573c.191-1.25-.229-2.45-.4-2.87-.384-.933-1.647-2.528-3.755-4.74-.564-.591-.527-1.046-.325-2.395l.021-.151c.137-.924.367-1.47 3.475-1.964 1.58-.25 1.995.38 2.57 1.255l.194.287c.546.8.951.983 1.563 1.26.275.125.617.283 1.075.542 1.087.621 1.087 1.323 1.087 2.86v.175c0 .651-.064 1.225-.164 1.723a13.335 13.335 0 00-5.175-20.568c-.921.621-2.186 1.503-2.628 2.108-.225.308-.545 1.887-1.583 2.017-.27.033-.635.01-1.022-.015-1.037-.067-2.453-.159-2.907 1.073-.288.78-.338 2.9.594 4 .15.175.178.5.076.865-.133.478-.401.77-.486.83-.16-.093-.48-.465-.699-.717-.521-.608-1.175-1.366-2.018-1.6-.307-.085-.643-.155-.972-.225-.915-.191-1.95-.41-2.191-.923-.177-.377-.175-.895-.175-1.442 0-.695 0-1.48-.34-2.241a2.125 2.125 0 00-.51-.717zM20 36.667c-9.205 0-16.667-7.462-16.667-16.667 0-9.205 7.462-16.667 16.667-16.667 9.205 0 16.667 7.462 16.667 16.667 0 9.205-7.462 16.667-16.667 16.667z" fill="inherit"/></svg><svg viewBox="0 0 25 24" id="mark" xmlns="http://www.w3.org/2000/svg"><g clip-path="url(#ayclip0_161_1802)"><path d="M19.03 17.364l-6.364 6.364-6.364-6.364a9 9 0 1112.728 0zM12.666 15a4 4 0 100-8 4 4 0 000 8zm0-2a2 2 0 110-4 2 2 0 010 4z" fill="inherit"/></g><defs><clipPath id="ayclip0_161_1802"><path fill="#fff" transform="translate(.666)" d="M0 0h24v24H0z"/></clipPath></defs></svg><svg viewBox="0 0 16 16" id="minus" xmlns="http://www.w3.org/2000/svg"><path d="M3.334 7.333h9.333v1.334H3.334V7.333z" fill="inherit"/></svg><svg viewBox="0 0 25 24" id="phone" xmlns="http://www.w3.org/2000/svg"><g clip-path="url(#baclip0_161_1798)"><path d="M21.334 16.42v3.536a1 1 0 01-.93.998c-.437.03-.794.046-1.07.046-8.837 0-16-7.163-16-16 0-.276.015-.633.046-1.07A1 1 0 014.378 3h3.536a.5.5 0 01.498.45c.023.23.044.413.064.552a13.901 13.901 0 001.208 4.001c.095.2.033.439-.147.567l-2.158 1.542a13.047 13.047 0 006.844 6.844l1.54-2.154a.462.462 0 01.573-.149 13.9 13.9 0 004 1.205c.139.02.322.042.55.064a.5.5 0 01.449.498h-.001z" fill="inherit"/></g><defs><clipPath id="baclip0_161_1798"><path fill="#fff" transform="translate(.334)" d="M0 0h24v24H0z"/></clipPath></defs></svg><svg viewBox="0 0 16 16" id="phone-2" xmlns="http://www.w3.org/2000/svg"><path d="M6.244 7.121a7.037 7.037 0 002.635 2.635l.589-.825a.667.667 0 01.863-.198 7.614 7.614 0 003.055.91.667.667 0 01.614.664v2.975a.667.667 0 01-.599.663c-.353.037-.709.055-1.068.055C6.627 14 2 9.373 2 3.667c0-.359.018-.715.055-1.068A.667.667 0 012.718 2h2.975a.667.667 0 01.664.614 7.615 7.615 0 00.91 3.055.667.667 0 01-.198.863l-.825.59zm-1.681-.438l1.266-.904a8.94 8.94 0 01-.731-2.446H3.34a8.999 8.999 0 009.327 9.327v-1.758a8.945 8.945 0 01-2.446-.731l-.904 1.266a8.29 8.29 0 01-1.059-.5l-.039-.022a8.37 8.37 0 01-3.134-3.134l-.022-.039a8.293 8.293 0 01-.5-1.059z" fill="inherit"/></svg><svg viewBox="0 0 16 16" id="plus" xmlns="http://www.w3.org/2000/svg"><path d="M7.334 7.333v-4h1.333v4h4v1.334h-4v4H7.334v-4h-4V7.333h4z" fill="inherit"/></svg><svg viewBox="0 0 33 32" id="protection" xmlns="http://www.w3.org/2000/svg"><path d="M16.5 1.333l10.956 2.435c.61.136 1.044.676 1.044 1.301v13.316a7.999 7.999 0 01-3.563 6.656L16.5 30.667 8.063 25.04A7.997 7.997 0 014.5 18.387V5.069c0-.625.435-1.165 1.044-1.301L16.5 1.333zm0 2.732L7.167 6.14v12.246c0 1.783.89 3.448 2.374 4.438l6.959 4.64 6.959-4.64a5.33 5.33 0 002.374-4.436V6.139L16.5 4.067v-.002zm5.936 6.898l1.887 1.885-8.486 8.485-5.657-5.657 1.885-1.885 3.771 3.77 6.6-6.6v.002z" fill="inherit"/></svg><svg viewBox="0 0 40 40" id="seedling" xmlns="http://www.w3.org/2000/svg"><path d="M10 5c5.817 0 10.638 4.257 11.522 9.825a10.798 10.798 0 017.645-3.158h7.5v4.166c0 5.984-4.85 10.834-10.834 10.834h-4.166V35h-3.334V21.667H15C8.557 21.667 3.333 16.443 3.333 10V5H10zm23.333 10h-4.166a7.5 7.5 0 00-7.5 7.5v.833h4.166a7.5 7.5 0 007.5-7.5V15zM10 8.333H6.667V10A8.334 8.334 0 0015 18.333h3.333v-1.666A8.334 8.334 0 0010 8.333z" fill="inherit"/></svg><svg viewBox="0 0 24 24" id="shopping-cart" xmlns="http://www.w3.org/2000/svg"><path d="M12.001 4.529a5.998 5.998 0 018.242.228 6 6 0 01.236 8.236l-8.48 8.492-8.478-8.492a6 6 0 018.48-8.464zm6.826 1.641a3.998 3.998 0 00-5.49-.153l-1.335 1.198-1.336-1.197a3.999 3.999 0 00-5.494.154 4 4 0 00-.192 5.451L12 18.654l7.02-7.03a4 4 0 00-.193-5.454z" fill="inherit"/></svg><svg viewBox="0 0 16 17" id="size" xmlns="http://www.w3.org/2000/svg"><path d="M10 11.833v1.334H4a.667.667 0 01-.667-.667V5.167h-2V3.833h2v-2h1.334v10H10zm1.333 3.334v-10H6V3.833h6a.667.667 0 01.667.667v7.333h2v1.334h-2v2h-1.334z" fill="inherit"/></svg><svg viewBox="0 0 25 24" id="telegram" xmlns="http://www.w3.org/2000/svg"><path d="M12.334 22c-5.523 0-10-4.477-10-10s4.477-10 10-10 10 4.477 10 10-4.477 10-10 10zm-3.11-8.83l.013-.007.87 2.87c.112.311.266.367.453.341.188-.025.287-.126.41-.244l1.188-1.148 2.55 1.888c.466.257.801.124.917-.432l1.657-7.822c.183-.728-.137-1.02-.702-.788l-9.733 3.76c-.664.266-.66.638-.12.803l2.497.78v-.001z" fill="inherit"/></svg><svg viewBox="0 0 16 16" id="thermometer" xmlns="http://www.w3.org/2000/svg"><path d="M5.333 3.333a2.667 2.667 0 015.334 0v3.504a4.667 4.667 0 11-5.334 0V3.333zm.763 4.597a3.333 3.333 0 103.808 0l-.57-.398V3.333a1.333 1.333 0 10-2.667 0v4.199l-.571.398zm-.763 2.737h5.334a2.667 2.667 0 01-5.334 0z" fill="inherit"/></svg><svg viewBox="0 0 24 19" id="twitter" xmlns="http://www.w3.org/2000/svg"><path d="M23.81 2.313a7.941 7.941 0 01-2.83.743A4.474 4.474 0 0023.125.413a9.862 9.862 0 01-3.086 1.156C18.66.161 16.532-.298 14.663.412c-1.868.71-3.1 2.443-3.11 4.38 0 .412.085.743.085 1.073C7.679 5.708 3.988 3.899 1.524.908a4.907 4.907 0 00-.686 2.479c-.016 1.603.826 3.102 2.228 3.965a5.24 5.24 0 01-2.228-.578v.082c-.003 2.253 1.65 4.192 3.943 4.626-.422.096-.853.151-1.286.166a3.64 3.64 0 01-.943-.083c.663 1.934 2.516 3.257 4.629 3.304a10.329 10.329 0 01-6.086 2.066 5.86 5.86 0 01-1.2-.083A14.549 14.549 0 007.438 19c9.086 0 13.971-7.27 13.971-13.465v-.579a14.155 14.155 0 002.4-2.643z" fill="#fff"/><path d="M23.81 2.313a7.941 7.941 0 01-2.83.743A4.474 4.474 0 0023.125.413a9.862 9.862 0 01-3.086 1.156C18.66.161 16.532-.298 14.663.412c-1.868.71-3.1 2.443-3.11 4.38 0 .412.085.743.085 1.073C7.679 5.708 3.988 3.899 1.524.908a4.907 4.907 0 00-.686 2.479c-.016 1.603.826 3.102 2.228 3.965a5.24 5.24 0 01-2.228-.578v.082c-.003 2.253 1.65 4.192 3.943 4.626-.422.096-.853.151-1.286.166a3.64 3.64 0 01-.943-.083c.663 1.934 2.516 3.257 4.629 3.304a10.329 10.329 0 01-6.086 2.066 5.86 5.86 0 01-1.2-.083A14.549 14.549 0 007.438 19c9.086 0 13.971-7.27 13.971-13.465v-.579a14.155 14.155 0 002.4-2.643z" fill="inherit"/></svg><svg viewBox="0 0 16 16" id="urn" xmlns="http://www.w3.org/2000/svg"><path d="M2.667 5.333h10.666V14a.667.667 0 01-.666.667H3.333A.667.667 0 012.667 14V5.333zM4 6.667v6.666h8V6.667H4zM6 8h1.333v4H6V8zm2.667 0H10v4H8.667V8zm-4-4.667V2a.667.667 0 01.666-.667h5.334a.667.667 0 01.666.667v1.333h3.334v1.334H1.333V3.333h3.334zM6 2.667v.666h4v-.666H6z" fill="inherit"/></svg><svg viewBox="0 0 25 24" id="wp" xmlns="http://www.w3.org/2000/svg"><path d="M2.338 22l1.352-4.968A9.954 9.954 0 012.334 12c0-5.523 4.477-10 10-10s10 4.477 10 10-4.477 10-10 10a9.953 9.953 0 01-5.03-1.355L2.338 22zM8.725 7.308a.961.961 0 00-.371.1 1.293 1.293 0 00-.294.228c-.12.113-.188.211-.261.306a2.729 2.729 0 00-.565 1.678c.002.49.13.967.33 1.413.409.902 1.082 1.857 1.971 2.742.214.213.423.427.648.626a9.448 9.448 0 003.84 2.046l.569.087c.185.01.37-.004.556-.013a1.99 1.99 0 00.833-.231 4.83 4.83 0 00.383-.22s.043-.028.125-.09c.135-.1.218-.171.33-.288.083-.086.155-.187.21-.302.078-.163.156-.474.188-.733.024-.198.017-.306.014-.373-.004-.107-.093-.218-.19-.265l-.582-.261s-.87-.379-1.401-.621a.498.498 0 00-.177-.041.483.483 0 00-.378.127v-.002c-.005 0-.072.057-.795.933a.35.35 0 01-.368.13 1.413 1.413 0 01-.191-.066c-.124-.052-.167-.072-.252-.109l-.005-.002a6.011 6.011 0 01-1.57-1c-.126-.11-.243-.23-.363-.346a6.298 6.298 0 01-1.02-1.268l-.059-.095a.922.922 0 01-.102-.205c-.038-.147.061-.265.061-.265s.243-.266.356-.41c.094-.12.182-.244.263-.373.118-.19.155-.385.093-.536-.28-.684-.57-1.365-.868-2.041-.059-.134-.234-.23-.393-.249a4.439 4.439 0 00-.162-.016 3.385 3.385 0 00-.403.004v.001z" fill="inherit"/></svg><svg viewBox="0 0 26 20" id="youtube" xmlns="http://www.w3.org/2000/svg"><g clip-path="url(#bmclip0_602_124)"><mask id="bma" style="mask-type:alpha" maskUnits="userSpaceOnUse" x="0" y="0" width="26" height="20"><path d="M25.721 4.667A6.543 6.543 0 0024.7 2 4.064 4.064 0 0022.1.857c-3.621-.19-9.1-.19-9.1-.19s-5.479 0-9.1.285A3.198 3.198 0 001.3 2 6.11 6.11 0 00.279 4.667 39.243 39.243 0 000 8.952v2a37.01 37.01 0 00.279 4.286c.14.956.49 1.868 1.021 2.667.8.714 1.818 1.119 2.879 1.143 2.042.19 8.821.285 8.821.285s5.479 0 9.1-.285a4.064 4.064 0 002.6-1.143 6.108 6.108 0 001.021-2.667c.171-1.422.264-2.853.279-4.286v-2a39.25 39.25 0 00-.279-4.285zm-15.414 8.761V5.905l7.057 3.714-7.057 3.81z" fill="#fff"/></mask><g mask="url(#bma)"><path d="M25.721 4.667A6.543 6.543 0 0024.7 2 4.064 4.064 0 0022.1.857c-3.621-.19-9.1-.19-9.1-.19s-5.479 0-9.1.285A3.198 3.198 0 001.3 2 6.11 6.11 0 00.279 4.667 39.243 39.243 0 000 8.952v2a37.01 37.01 0 00.279 4.286c.14.956.49 1.868 1.021 2.667.8.714 1.818 1.119 2.879 1.143 2.042.19 8.821.285 8.821.285s5.479 0 9.1-.285a4.064 4.064 0 002.6-1.143 6.108 6.108 0 001.021-2.667c.171-1.422.264-2.853.279-4.286v-2a39.25 39.25 0 00-.279-4.285zm-15.414 8.761V5.905l7.057 3.714-7.057 3.81z" fill="inherit"/></g></g><defs><clipPath id="bmclip0_602_124"><path fill="#fff" d="M0 0h26v20H0z"/></clipPath></defs></svg></svg>